<?xml version="1.0" encoding="UTF-8"?><svg id="Calque_2" xmlns="http://www.w3.org/2000/svg" viewBox="0 0 306.06 306.06"><defs><style>.cls-1{fill:#fff;}.cls-2{stroke:#1d1d1b;stroke-miterlimit:10;stroke-width:4px;}</style></defs><g id="Calque_1-2"><rect class="cls-1" x="0" y="0" width="306.06" height="306.06" rx="153.03" ry="153.03"/><g><path class="cls-2" d="M49.11,130.31c13.52-2.87,26.85-5.73,40.21-8.48,1.73-.36,2.51-.98,2.81-2.79,4.49-26.45,21.8-43.55,48.51-48.03,4.44-.75,4.4-.75,5-5,1.84-13.12,3.71-26.24,5.58-39.36,.07-.5-.19-1.23,.48-1.44,.61-.19,.97,.42,1.35,.78,20.12,18.46,39.06,37.96,53.22,61.57,6.04,10.07,10.68,20.69,12.93,32.33,1.67,8.69-.04,16.92-2.33,25.18-1.58,5.7-3.3,11.36-5.54,16.84-.49,1.19-.51,2.22,.16,3.36,2.93,5.02,2.04,9.9-.91,14.51-3.78,5.88-9.52,9.32-15.75,12.03-5.91,2.57-12.14,3.91-18.52,4.66-2.13,.25-2.5,1-1.16,2.66,2.3,2.83,4.35,5.8,6.25,8.9,.44,.71,1.13,1.33,1.83,1.81,5.58,3.86,11.21,7.65,16.77,11.54,1.5,1.05,2.29,.84,3.33-.71,4.43-6.61,8.58-13.46,14.77-18.69,.59-.5,.67-.98,.43-1.65-3.63-10.31-.48-19.41,5.26-27.91,1.33-1.97,1.59-3.73,1.19-5.94-.89-4.91-1.29-9.87-.36-14.83,.72-3.83,2.18-7.19,6.47-8.16,4.42-1,7.63,.97,10.15,4.45,2.25,3.1,3.33,6.6,3.59,10.37,.09,1.26,.38,1.8,1.86,1.46,11.57-2.67,20.76,3.27,25.84,13.54,4.11,8.31,6.45,17.1,5.77,26.5-.73,10.11-5.91,17.42-14.32,22.67-1.33,.83-2.69,1.78-4.16,2.22-3.94,1.18-5.98,3.92-7.81,7.48-5.31,10.31-11.99,19.68-21.17,27-13.23,10.54-27.1,10.95-40.99,1.32q-2.22-1.54-2.89,.94c-1.07,4.05-2.49,7.97-3.97,11.88-.62,1.63-1.47,2.3-3.27,2.29-30.62-.05-61.25-.03-91.87-.03-1.05,0-2.13,.09-2.35-1.34-1.13-7.58-2.08-15.16-1.21-22.86,.34-3.02,1.63-5.53,3.6-7.81,8.81-10.14,18.48-19.45,27.99-28.91,4.03-4.01,8.14-7.93,12.21-11.9,2.86-2.78,4.79-6.26,6.92-9.56,1.39-2.16,.53-4.1-1.47-5.58-2.85-2.1-5.78-2.81-9.4-2.67-5.9,.24-11.41-1.38-15.54-6.1-1.82-2.07-2.97-4.5-3.58-7.11-.38-1.6-1.1-2.65-2.41-3.56-17.22-12-34.42-24.02-51.61-36.06-.62-.44-1.41-.71-1.89-1.8Zm79.01,126.94c.82,.58,1.46,.39,2.06,.4,8.15,.08,16.25,.71,24.23,2.37,9.27,1.94,18.24,4.64,25.27,11.49,1.31,1.28,1.49,.16,1.82-.69,2-5.08,3.63-10.27,4.61-15.64,3.68-20.21,.28-38.76-13.02-54.96-.34-.42-.84-.95-.8-1.39,.21-2.31-1.28-2.02-2.74-2-9.99,.12-19.63-1.63-28.83-5.57-1.74-.75-3.26-1.68-2.99,1.49,.07,.88-.63,1.59-1.12,2.31-.74,1.08-1.48,2.16-2.27,3.33,1.01,.29,1.64-.14,2.3-.31,4.04-1.09,8.1-1.17,12.18-.26,.62,.14,1.61,.06,1.4,1.16-.22,1.17-1.12,.84-1.89,.72-.23-.04-.46-.13-.69-.16-7.15-1-13.65,.03-18.87,5.65-2.63,2.83-5.54,5.4-8.29,8.12-10.53,10.45-21.28,20.69-31.02,31.91-1.96,2.26-2.88,4.84-3.09,7.75-.44,6.1,.2,12.13,.94,18.17,.22,1.75,.88,2.15,2.55,2.14,12.87-.07,25.73-.04,38.6-.04q2.77,0,1.8-2.69c-1.69-4.67-3.4-9.34-5.07-14.02-.22-.6-.85-1.29-.05-1.92,.63-.5,1.07-.22,1.59,.33,.67,.7,1.14-.14,1.55-.48,8.99-7.44,18.44-14.37,26.13-23.27,.54-.62,1.14-1.04,1.8-.55,.82,.61,.08,1.25-.29,1.78-.45,.65-.97,1.25-1.5,1.83-3.16,3.44-6.64,6.53-10.19,9.54-5.29,4.48-10.64,8.89-16.1,13.44Zm56.07-43.79c.85,2.34,1.53,4.1,2.13,5.88,3.9,11.56,4.28,23.35,2.21,35.29-.15,.85-.48,1.68,.41,2.37,6.81,5.24,14.2,8.85,23.1,7.99,7.72-.74,14.03-4.49,19.67-9.53,8.85-7.91,15.18-17.67,20.33-28.24,.75-1.54,1.71-2.51,3.32-3.06,2.62-.89,5.08-2.16,7.43-3.61,8.57-5.29,13.35-12.87,13.36-23.04,.01-9.26-2.54-17.91-7.23-25.89-1.53-2.61-3.54-4.86-6-6.63-5.74-4.11-12.28-5.08-18.38-2.04-5.55,2.77-9.42,7.85-11.22,14.05-.47,1.61-.24,3.29,.59,4.83,1.08,2.01,1.43,2.08,2.84,.3,2.48-3.14,5.45-5.69,9.01-7.53,4.43-2.29,9.14-3.42,14.14-3.25,.71,.02,1.73-.26,1.7,1.03-.04,1.26-1.03,.92-1.76,.97-.63,.05-1.26,0-1.89,.03-8.3,.44-14.98,3.94-20.03,10.55-2.09,2.74-1.78,5.66-.48,8.48,1.24,2.68,3.82,2.94,5.86,.78,1.36-1.44,2.82-2.76,4.42-3.92,5.24-3.79,11.04-5.7,17.55-5.07,.75,.07,2.02-.3,1.87,1.11-.14,1.32-1.29,.79-2.08,.83-.31,.02-.63-.03-.95-.04-8.19-.3-14.61,3.28-19.93,9.17-1.6,1.77-1.42,5.72,.14,7.49,1.64,1.85,3.39,1.78,6.23-.1,5.66-3.73,11.7-5.43,18.41-3.28,.68,.22,1.7,.25,1.26,1.49-.37,1.05-1.08,.65-1.73,.44-6.44-2.06-12.1-.22-17.43,3.41-1.23,.84-1.76,1.9-1.8,3.37-.08,3.45,1.65,5.45,5.39,5.91,2.44,.3,4.88,.2,7.3-.3,.75-.16,1.44-.15,1.57,.87,.12,.91-.54,1.03-1.16,1.14-2.42,.43-4.86,.49-7.31,.33-5.08-.32-8.33-3.66-7.76-8.19,.09-.68,.23-1.5-.76-1.73-4.28-.98-5.53-4-5.39-7.97,.02-.66,0-1.32-.81-1.49-5.11-1.06-5.86-4.87-5.77-9.19,.02-.88,.04-1.69-.66-2.4-3.8-3.92-3.33-8.26-1.01-12.64,2.02-3.82,4.93-6.93,8.16-9.74,.71-.62,1.59-1.17,1.56-2.25-.12-5.21-1.25-10.1-5.5-13.56-3.49-2.84-7.99-1.47-9.61,2.73-.57,1.48-.86,3.03-.97,4.61-.3,4.28-.1,8.55,.82,12.72,.51,2.34,.12,4.08-1.26,6.08-6.34,9.24-9.63,18.99-3.8,29.96-2.94,.06-4.54,2.09-6.17,3.98-5.53,6.41-10.18,13.45-14.53,20.7-.41,.68-.63,1.53-1.71,2.2,.36-1.47,.62-2.61,.91-3.74,.21-.81,.27-1.5-.58-2.06-5.2-3.42-10.39-6.87-16.02-10.61Zm-49.85-62.23c-2.7,4.61-5.28,9.01-7.84,13.42-.56,.97-1.11,.46-1.73,.06-1.51-1-2.99-2.07-4.59-2.91-6.11-3.19-10.49-1.36-12.76,5.12-.77,2.19-.34,4.21,.45,6.21,1.56,3.94,4.31,6.74,8.29,8.26,3.78,1.44,7.69,1.63,11.66,1.2,1.04-.11,1.97-.18,2.92,.5,9.98,7.14,21.25,10.6,33.38,11.32,12.36,.73,24.24-1.17,35.16-7.38,4.02-2.29,7.55-5.18,9.9-9.28,1.73-3.01,2.92-6.58,1.06-9.46-2.52-3.89-1.19-7.04,.26-10.51,.64-1.53,1.17-3.1,1.65-4.69,2.23-7.38,4.84-14.63,3.59-22.65-1.36-8.75-3.72-16.92-10.12-23.46-1.44-1.47-2.14-1.54-3.1,.45-2.64,5.47-5.51,10.83-9.08,15.77-2.75,3.79-3.45,3.85-6.66,.58-6.42-6.55-12.08-13.75-17.5-21.13-1.63-2.22-3.24-2.63-5.77-2.07-11,2.44-19.49,8.69-26.43,17.25-6.02,7.43-10.7,15.62-12.88,25.03-.79,3.42,.46,5.58,3.63,7.05,1.96,.9,4.09,.98,6.52,1.33Zm21.29,122.12v.03c1.58,0,3.15,0,4.73,0,5.63,0,5.59-.02,7-5.5,.34-1.34,.07-2-1.24-2.48-5.12-1.86-10.35-3.25-15.74-4.08-1.18-.18-1.71,.1-2,1.28-.76,3.05-1.57,6.1-2.48,9.11-.39,1.3-.07,1.68,1.23,1.65,2.83-.06,5.67-.02,8.51-.02ZM117.43,95.58c-1.74,.08-3.24,.74-4.34,2.09-1.49,1.83-2.95,3.69-4.34,5.6-2.38,3.27-2.36,3.31,1.33,5.06,.86,.41,1.77,1.3,2.73,.13,2.36-2.86,4.83-5.63,7.02-8.61,1.41-1.93-.01-4.24-2.4-4.28Zm-14.44,21.26c0,2.25,.19,3.89,.73,5.46,.25,.72,.37,1.72,1.26,1.84,.94,.12,1.23-.88,1.52-1.55,1.21-2.81,2.28-5.67,3.51-8.47,.69-1.58,.39-2.29-1.33-2.84-4.46-1.42-4.7-1.35-5.44,3.35-.15,.93-.2,1.87-.24,2.22Zm37.83,156.48c1.85,.43,2.81-.32,3.22-2.26,.57-2.69,1.44-5.31,2.1-7.98,.2-.83,1.23-2.17-.55-2.39-1.4-.17-3.28-1.31-3.91,1.4-.71,3.06-1.68,6.06-2.64,9.05-.56,1.74-.23,2.56,1.79,2.17Zm-3.25-13.36c-.67,.08-1.63-.41-1.98,.66-1.05,3.22-2.23,6.41-3,9.7-.26,1.09,.02,2.71,1.84,3.04,1.88,.34,2.22-.92,2.59-2.26,.8-2.89,1.52-5.8,2.5-8.63,.71-2.04,.26-2.83-1.95-2.51Zm32.74,13.62c2.76,.54,2.66-1.66,2.91-3.22,.34-2.12-1.84-2.36-2.95-2.59-1.64-.35-.94,1.7-1.54,2.55-.17,.24-.18,.59-.3,.88-.76,1.92-.24,2.81,1.88,2.38Zm-39.23-6.63c1.19-1.85,1.35-3.69,2.05-5.31,.67-1.54,.14-2.18-1.5-2.04-.54,.05-1.1,.02-1.64,.01-.97-.01-1.52,.21-1.06,1.37,.73,1.87,1.37,3.78,2.16,5.97Zm46.97,6.05c-.93-.7-1.23-2.31-2.65-1.99-.58,.13-.73,1.26-.49,1.68,.74,1.31,1.99,.51,3.14,.32Z"/><path class="cls-2" d="M148.28,147.68c-.05-5.27,.9-10.34,2.85-15.24,.4-1,1.15-2.05-.48-2.69-.35-.14-.42-.55-.21-.78,.16-.19,.63-.34,.81-.24,1.36,.81,1.93-.15,2.3-1.1,.65-1.69,3.32-2.48,2.23-4.96-.06-.13,.37-.39,.75-.35,2.79,.28,4.66-.51,6.02-2.45,.12-.17,.31-.4,.49-.41,.54-.05,.51,.43,.63,.79,.67,1.94,2.45,2.82,4.52,2.22,.34-.1,.59-.16,.82,.13,.23,.29,.07,.55-.03,.85-.58,1.93,.55,4.01,2.49,4.52,.63,.17,.9,.59,.49,.92-1.28,1.03-.54,2.16-.31,3.25,1.87,8.95,.77,17.56-3.04,25.83-1.16,2.53-2.74,4.8-4.89,6.6-4.02,3.37-8.52,2.77-11.65-1.52-2.5-3.43-3.81-8.74-3.79-15.36Zm3.71-11.71c4.51-4.23,7.54-3.57,9.63,1.7,1.7,4.28,1.89,8.76,1.18,13.27-.8,5.1-1.98,10.04-7.16,12.83,1.85,1.37,3.62,1.17,5.41,.22,2.48-1.32,4.03-3.52,5.29-5.9,3.55-6.75,4.75-13.97,4.05-21.52-.33-3.56-1.08-7.03-3.12-10.05-2.48-3.69-5.92-4.15-9.21-1.19-3.01,2.71-4.69,6.23-6.05,10.65Zm-1.44,16.8c.17,1.26,.02,2.92,1.74,3.15,1.65,.22,2.24-1.3,2.6-2.57,.46-1.6,.64-3.28-.61-4.7-.47-.53-1.13-.61-1.72-.24-1.59,.99-1.88,2.61-2.01,4.35Z"/><path class="cls-2" d="M194.49,150.53c.19-6.34,1.11-12.51,3.62-18.42,.62-1.45,.92-2.91,2.37-3.85,.79-.51,1.37-1.35,.75-2.43-.21-.37-.25-.79,.14-1.05,.43-.29,.68,.07,.95,.37,1.42,1.64,2.33,1.38,2.7-.76,.07-.39,.14-.83,.64-.83,.52,0,.54,.45,.59,.84,.22,1.89,.21,3.96,3.19,3.06,.57-.17,.65,.43,.46,.97-.88,2.55-.55,3.74,1.44,5.26,.35,.27,.63,.62,.25,.96-1.38,1.23-.75,2.77-.71,4.22,.21,7-.63,13.83-3.25,20.38-.7,1.76-1.58,3.44-2.83,4.89-2.84,3.29-6.05,2.95-8.09-.92-1.69-3.22-1.97-6.77-2.22-10.31-.06-.78,0-1.57,0-2.36Zm4.82,13.02c1.68,1.33,2.65,.62,3.53-.21,1.35-1.27,2.19-2.89,2.87-4.58,3.09-7.72,3.91-15.73,2.75-23.93-.28-1.95-.81-3.87-1.95-5.54-1.04-1.52-2.34-1.92-3.74-.52-2.7,2.7-3.81,6.15-4.82,10.11,2.9-1.56,4.09,.03,4.76,1.89,2.44,6.69,2.46,13.43-.05,20.12-.51,1.36-1.36,2.51-3.34,2.67Zm-3.09-8.74c.17,1.41,.15,3.2,1.94,3.3,2.02,.11,2.17-1.79,2.19-3.25,.02-1.41-.25-3.19-2.03-3.22-1.82-.03-1.9,1.75-2.11,3.17Z"/><path class="cls-2" d="M166.86,170.28c6.59,5.99,14.19,4.59,21.61,3.76,.27,.42,.17,.7,0,.98-2.95,4.95-6.25,9.64-10.35,13.72-1.4,1.39-2.93,2.64-4.71,3.51-3.73,1.82-7.1,.46-8.49-3.48-.39-1.1-.66-2.29-.72-3.45-.27-5.17,.92-10.07,2.66-15.04Zm9.51,16.94c3.24-3.14,5.69-6.43,8.1-10.13-1.57,0-2.73-.02-3.9,0-3.74,.06-7.37-.46-10.84-1.94-.59-.25-1.62-1.59-1.93,.05-.24,1.26-2.14,3.05,.36,3.95,3.85,1.39,6.73,3.68,8.21,8.07Zm-6.2,3.59c3.73-.09,5.06-2.35,3.33-5.32-1.25-2.15-3.14-3.49-5.48-4.25-.71-.23-1.44-.54-1.52,.65-.16,2.38-.22,4.75,.92,6.94,.62,1.19,1.58,1.95,2.75,1.98Z"/><path class="cls-2" d="M161.89,109.75c6.6-.05,12.76,4.58,14.27,9.74,.19,.65,.17,1.02-.49,1.32-.64,.28-1,.11-1.35-.46-.9-1.48-1.73-3.02-2.81-4.37-3.27-4.09-7.54-5.23-12.47-3.46-4.1,1.47-7.43,4.1-10.49,7.1-.39,.39-.79,.77-1.17,1.17-.5,.53-.95,.39-1.42-.05-.43-.4-.47-.79-.07-1.21,4.75-5,9.95-9.22,16-9.77Z"/><path class="cls-2" d="M116.19,168.02c-.43-.03-.66-.09-.87-.05-.93,.19-2.28,1.02-2.48-.5-.14-1.09,1.36-1.34,2.35-1.49,3.26-.5,8.64,2.74,9.72,5.88,.62,1.79,.76,3.64-.9,4.99-1.64,1.34-3.41,.92-5.06-.07-3.08-1.86-4.11-5-2.76-8.75Zm7.15,6.16c-.08-2.55-2.52-5.13-4.35-5.05-1.2,.05-1.61,.82-1.63,1.87-.04,2.06,2.33,4.66,4.23,4.68,1.33,.01,1.76-.78,1.75-1.5Z"/><path class="cls-2" d="M206.31,113.65c1.09,.04,2.37,.9,3.39,2.17,2.2,2.7,3.05,5.98,3.95,9.25,.2,.73,.01,1.22-.82,1.36-.88,.15-1.09-.45-1.24-1.08-.47-1.99-1.06-3.94-1.95-5.79-2.33-4.84-4.96-5.18-8.45-1.06-.56,.66-1.05,1.37-1.55,2.07-.43,.6-.92,.45-1.43,.14-.38-.22-.5-.49-.39-.96,.55-2.37,5.4-6.16,8.48-6.1Z"/><path class="cls-2" d="M190.16,165.69c.88,1.34,1.68,1.27,2.84,.69,2.29-1.16,4.27-.66,5.72,1.12,1.55,1.89,1.92,5.47,.74,7.1-1.5,2.07-4.72,1.92-7.76-.59,1.2,.24,2.08,.45,2.97,.58,1.2,.18,2.55,.26,3.22-.89,.92-1.59,.28-3.22-.54-4.69-.65-1.17-1.73-1.55-3.02-1.32-.38,.07-.76,.2-1.12,.34q-2.57,1.04-3.04-2.33Z"/></g></g></svg>